<?xml version="1.0" standalone="no"?>
<!DOCTYPE svg PUBLIC "-//W3C//DTD SVG 20010904//EN"
 "http://www.w3.org/TR/2001/REC-SVG-20010904/DTD/svg10.dtd">
<svg version="1.0" xmlns="http://www.w3.org/2000/svg"
 width="1600.000000pt" height="1600.000000pt" viewBox="0 0 1600.000000 1600.000000"
 preserveAspectRatio="xMidYMid meet">

<g transform="translate(0.000000,1600.000000) scale(0.100000,-0.100000)"
fill="#000000" stroke="none">
<path d="M8371 14127 c-9 -12 0 -15 59 -19 60 -5 77 -10 110 -37 21 -17 46
-31 54 -31 9 0 33 -15 53 -34 21 -18 54 -40 73 -48 20 -9 44 -28 55 -44 10
-16 28 -39 41 -50 12 -12 28 -41 34 -65 7 -24 20 -49 30 -56 25 -18 43 -112
38 -195 -4 -51 -12 -78 -31 -106 -14 -20 -28 -56 -32 -80 -4 -26 -19 -57 -36
-77 -16 -18 -35 -46 -41 -62 -7 -16 -24 -44 -38 -62 -47 -60 -185 -198 -206
-205 -11 -3 -27 -17 -33 -30 -7 -13 -24 -30 -38 -37 -13 -7 -29 -21 -34 -31
-5 -10 -26 -26 -47 -37 -20 -10 -45 -28 -55 -39 -10 -11 -33 -26 -50 -33 -18
-7 -43 -22 -57 -35 -14 -13 -41 -30 -60 -38 -20 -8 -44 -23 -53 -34 -10 -11
-33 -26 -50 -33 -18 -7 -47 -24 -66 -36 -19 -13 -51 -28 -71 -33 -21 -6 -45
-21 -53 -34 -11 -16 -33 -28 -67 -36 -30 -7 -62 -23 -78 -40 -15 -15 -45 -30
-67 -34 -22 -4 -45 -16 -53 -27 -7 -10 -38 -26 -68 -35 -31 -9 -64 -24 -74
-34 -17 -17 -42 -26 -122 -44 -16 -4 -28 -11 -28 -16 0 -14 -49 -36 -110 -49
-32 -7 -65 -22 -80 -36 -16 -15 -47 -29 -80 -35 -29 -6 -61 -17 -69 -24 -27
-25 -111 -56 -150 -56 -25 0 -44 -7 -56 -20 -9 -10 -43 -25 -74 -31 -31 -7
-69 -23 -86 -35 -18 -13 -58 -27 -100 -34 -38 -7 -79 -20 -90 -30 -24 -21 -71
-36 -140 -46 -27 -3 -59 -14 -70 -24 -32 -28 -41 -30 -125 -40 -59 -7 -86 -15
-102 -31 -33 -30 -53 -36 -150 -44 -61 -5 -88 -12 -92 -22 -8 -20 -61 -39
-131 -48 -33 -4 -71 -15 -85 -25 -34 -24 -83 -38 -160 -46 -39 -4 -87 -18
-120 -35 -32 -16 -82 -30 -118 -34 -35 -4 -90 -18 -123 -31 -32 -13 -91 -29
-131 -34 -40 -6 -107 -24 -149 -40 -46 -18 -106 -32 -155 -36 -59 -5 -89 -14
-119 -32 -33 -21 -57 -27 -140 -32 -82 -5 -109 -11 -150 -32 -31 -17 -75 -29
-115 -34 -39 -4 -89 -18 -125 -35 -33 -16 -85 -34 -117 -40 -32 -6 -58 -16
-58 -21 0 -5 -21 -18 -47 -29 -52 -21 -81 -57 -103 -124 -6 -22 -21 -56 -33
-75 -16 -28 -21 -62 -28 -165 -7 -131 -17 -176 -46 -208 -14 -14 -17 -56 -21
-250 -6 -255 -5 -377 2 -384 3 -3 32 22 64 56 33 33 64 61 71 61 6 0 21 16 32
35 11 19 29 37 39 40 10 3 36 21 57 40 21 19 41 35 45 35 3 0 25 16 48 35 23
19 47 35 54 35 7 0 25 13 41 30 15 16 44 35 64 41 20 7 45 18 56 25 28 18 123
44 159 44 17 0 50 13 74 30 59 39 108 44 427 44 307 -1 349 -5 402 -41 25 -17
59 -28 105 -34 61 -8 86 -17 138 -49 8 -5 40 -20 70 -35 69 -32 136 -70 174
-97 23 -17 32 -19 45 -9 37 27 90 44 160 52 53 6 84 15 110 33 23 16 60 29
102 35 40 5 79 18 101 33 20 14 62 30 94 36 31 7 77 24 102 38 27 16 69 29
107 34 39 5 77 17 104 34 25 16 63 29 94 33 29 3 59 11 67 18 34 29 115 65
146 65 18 0 49 11 68 24 19 13 56 27 82 31 29 4 61 18 83 35 25 20 55 32 96
38 32 5 61 15 63 21 6 18 52 38 105 45 27 4 64 18 84 32 20 13 54 29 76 35 22
6 56 21 76 34 20 12 61 29 91 35 30 7 61 21 68 31 7 10 38 26 70 35 31 10 64
23 72 30 26 20 78 44 98 44 11 0 31 11 46 25 14 13 45 30 69 37 23 6 57 24 74
39 18 16 50 31 70 35 21 4 53 20 71 35 18 16 45 32 60 35 15 4 53 22 85 40 32
19 62 34 66 34 5 0 25 13 45 29 21 17 57 37 82 47 24 9 44 21 44 26 0 5 19 18
43 29 23 10 57 31 76 44 19 14 45 28 58 31 13 4 37 19 52 35 18 18 44 31 71
35 29 5 45 13 52 29 5 12 25 30 44 38 19 9 34 21 34 27 0 5 17 18 38 29 21 11
53 33 71 50 18 17 40 31 48 31 8 0 29 16 46 35 17 19 36 35 42 35 6 0 21 14
33 30 13 17 28 30 34 30 9 0 87 72 161 148 12 12 65 66 118 120 53 54 100 108
103 120 4 13 18 30 32 38 13 9 24 22 24 28 0 6 18 38 40 71 22 33 40 65 40 72
0 6 11 25 25 41 14 17 29 52 34 79 5 26 22 75 38 108 27 57 28 66 28 210 0
141 -2 154 -27 210 -14 33 -29 84 -33 113 -6 43 -12 56 -31 64 -14 7 -30 29
-41 56 -12 31 -47 75 -115 144 -54 54 -98 105 -98 113 0 7 -15 18 -34 25 -18
6 -44 22 -57 37 -13 14 -43 34 -66 45 -23 10 -45 23 -49 29 -4 6 -32 22 -63
36 -31 14 -63 31 -71 38 -8 7 -32 18 -53 25 -21 6 -51 23 -67 37 -17 14 -56
32 -87 40 -31 8 -67 23 -80 33 -14 10 -50 21 -90 25 -69 7 -125 25 -153 49
-11 10 -71 16 -219 21 -112 4 -210 9 -216 11 -6 3 -17 -1 -24 -9z"/>
<path d="M7853 14123 c-19 -3 -37 -12 -43 -24 -6 -10 -25 -26 -42 -35 -17 -9
-42 -29 -55 -44 -13 -16 -38 -32 -56 -35 -17 -4 -41 -15 -52 -25 -22 -19 -78
-40 -108 -40 -11 0 -42 -14 -69 -31 -28 -16 -75 -35 -107 -40 -31 -6 -63 -17
-72 -25 -22 -20 -64 -32 -142 -43 -38 -5 -91 -21 -118 -36 -31 -16 -80 -29
-132 -36 -45 -6 -109 -21 -142 -34 -35 -13 -104 -28 -164 -34 -57 -6 -109 -15
-115 -20 -25 -20 -114 -42 -209 -52 -56 -5 -129 -18 -162 -29 -84 -27 -174
-40 -283 -40 -79 0 -100 -4 -142 -25 -51 -26 -148 -44 -233 -45 -30 0 -69 -10
-104 -26 -31 -14 -84 -29 -119 -33 -52 -6 -67 -12 -84 -34 -12 -15 -28 -27
-35 -27 -23 0 -244 -196 -420 -372 -14 -14 -62 -68 -152 -173 -43 -49 -88
-101 -101 -115 -13 -14 -32 -42 -43 -62 -10 -21 -28 -42 -39 -48 -11 -6 -20
-18 -20 -28 0 -9 -16 -42 -35 -72 l-34 -55 75 -3 c62 -2 81 1 109 18 40 25
150 50 221 50 37 0 67 8 110 31 50 25 75 31 154 36 69 4 101 11 118 24 26 20
92 35 201 45 49 4 94 16 134 34 37 18 84 31 126 35 36 3 84 15 106 25 49 23
107 36 203 45 39 4 75 11 78 16 12 21 73 42 139 50 44 5 90 17 122 35 38 19
73 28 125 32 52 3 79 10 93 23 23 21 97 49 129 49 12 0 41 11 66 24 25 13 78
31 119 40 40 9 93 28 117 41 23 13 68 28 100 34 32 6 67 20 78 30 12 11 49 26
83 34 34 8 68 21 77 30 9 8 37 23 63 32 27 9 55 21 63 26 53 32 91 48 124 55
21 3 47 15 58 26 11 11 38 26 60 34 22 7 56 27 74 44 19 16 44 30 54 30 11 0
28 9 38 21 9 11 37 31 62 44 25 13 70 46 100 74 30 28 59 51 63 51 8 0 59 46
103 91 61 64 74 84 80 122 3 23 14 54 25 69 15 22 16 28 4 38 -8 6 -19 28 -26
48 -15 47 -34 69 -81 93 -21 11 -45 30 -54 44 -9 14 -19 24 -23 23 -3 0 -21
-3 -38 -5z"/>
<path d="M11610 11875 c-13 -13 -31 -27 -42 -31 -10 -3 -18 -13 -18 -23 0 -20
-30 -51 -48 -51 -6 0 -14 -11 -18 -25 -3 -14 -19 -32 -35 -41 -16 -8 -29 -21
-29 -29 0 -18 -24 -31 -77 -40 -24 -4 -43 -11 -43 -16 0 -33 -87 30 -130 93
-18 26 -42 55 -52 65 -11 10 -24 28 -29 40 -4 12 -20 24 -38 28 -19 4 -33 15
-37 28 l-7 22 -8 -23 c-5 -13 -22 -43 -39 -67 -16 -24 -30 -48 -30 -54 0 -6
-13 -25 -30 -43 -16 -17 -30 -42 -30 -55 0 -34 -23 -73 -81 -140 -28 -32 -60
-77 -69 -100 -11 -23 -28 -44 -39 -48 -12 -3 -28 -21 -35 -40 -8 -18 -24 -36
-35 -40 -12 -3 -21 -13 -21 -20 0 -8 -16 -26 -35 -41 -19 -14 -35 -31 -35 -37
0 -7 -17 -27 -37 -47 -21 -19 -61 -60 -89 -90 -79 -86 -183 -180 -199 -180 -8
0 -19 -8 -24 -18 -5 -10 -27 -26 -49 -36 -21 -10 -46 -31 -56 -46 -10 -19 -31
-34 -54 -41 -22 -6 -42 -20 -48 -32 -5 -12 -24 -26 -41 -31 -18 -5 -33 -15
-33 -22 0 -8 -12 -21 -27 -30 -64 -39 -107 -70 -146 -104 -23 -20 -60 -43 -82
-50 -22 -7 -58 -26 -79 -41 -22 -16 -48 -29 -57 -29 -10 0 -24 -12 -31 -27 -8
-16 -28 -31 -51 -39 -22 -8 -54 -27 -73 -44 -19 -16 -43 -30 -53 -30 -10 0
-24 -7 -32 -16 -14 -17 -82 -54 -98 -54 -6 0 -29 -13 -53 -29 -24 -16 -60 -32
-80 -36 -24 -5 -39 -14 -43 -26 -4 -13 -26 -25 -64 -36 -37 -11 -61 -24 -67
-37 -5 -11 -30 -27 -57 -35 -26 -9 -57 -28 -70 -43 -12 -14 -37 -30 -56 -33
-18 -4 -59 -22 -90 -41 -37 -23 -69 -34 -94 -34 -30 0 -39 -5 -47 -24 -7 -20
-18 -26 -65 -31 -47 -6 -62 -13 -88 -41 -25 -28 -37 -34 -72 -34 -32 0 -52 -7
-80 -30 -33 -26 -90 -50 -121 -50 -6 0 -29 -12 -50 -26 -21 -15 -55 -31 -74
-36 -19 -5 -51 -21 -71 -34 -20 -14 -58 -27 -87 -31 -39 -4 -54 -11 -71 -33
-16 -22 -31 -30 -73 -35 -32 -5 -69 -18 -94 -36 -22 -15 -54 -31 -70 -35 -16
-4 -60 -22 -99 -41 -38 -18 -76 -33 -84 -33 -7 0 -51 -18 -96 -40 -45 -22 -97
-43 -116 -46 -19 -4 -38 -10 -44 -14 -5 -5 -48 -22 -95 -40 -47 -18 -96 -38
-110 -45 -14 -7 -52 -21 -85 -30 -33 -10 -78 -28 -100 -41 -22 -12 -67 -30
-100 -38 -92 -23 -195 -60 -195 -69 0 -4 -10 -29 -21 -54 -12 -26 -25 -70 -30
-97 -18 -114 -51 -242 -73 -284 -9 -17 -16 -36 -16 -42 0 -17 -31 -81 -52
-109 -10 -13 -18 -31 -18 -40 0 -21 -71 -160 -104 -204 -13 -17 -31 -49 -40
-70 -9 -22 -25 -41 -35 -44 -11 -3 -22 -17 -26 -33 -3 -15 -21 -42 -40 -60
-19 -19 -39 -48 -45 -65 -6 -18 -22 -37 -35 -43 -14 -7 -25 -20 -25 -30 0 -20
-29 -52 -48 -52 -7 0 -12 -9 -12 -19 0 -11 -20 -43 -45 -72 -25 -29 -45 -59
-45 -66 0 -7 -13 -19 -29 -27 -16 -9 -34 -29 -40 -47 -6 -17 -19 -33 -29 -36
-10 -2 -22 -19 -28 -36 -5 -20 -20 -37 -36 -45 -16 -7 -28 -21 -28 -32 0 -10
-4 -21 -9 -25 -5 -3 -12 -19 -16 -35 -4 -16 -14 -34 -23 -39 -8 -5 -17 -22
-18 -38 l-2 -30 97 24 c53 12 110 28 126 35 17 6 67 12 112 13 45 1 88 7 96
13 7 6 42 19 78 28 35 9 82 25 103 36 22 11 82 28 135 38 53 10 122 27 154 39
32 12 93 26 135 31 69 9 85 17 95 44 2 5 42 15 90 22 56 8 96 20 112 32 14 11
45 26 70 33 25 7 45 17 45 21 0 4 15 8 34 8 19 0 50 9 69 20 19 12 59 23 88
27 30 3 71 14 92 25 21 11 72 28 112 38 40 10 99 32 131 48 63 32 263 102 290
102 9 0 29 9 45 20 15 12 57 27 92 34 35 8 93 28 129 45 36 17 89 36 118 42
29 6 60 18 70 26 19 16 127 62 221 93 31 10 79 30 107 44 28 14 70 29 94 32
25 4 56 18 75 35 18 15 50 31 70 35 21 3 45 12 53 19 29 23 85 51 130 64 56
17 151 62 165 78 14 16 102 53 128 53 12 0 47 16 77 35 30 19 60 35 68 35 7 0
28 11 45 24 18 13 50 29 72 37 22 7 49 22 61 35 31 32 58 44 102 44 31 0 41 5
50 24 6 13 23 27 38 30 15 4 45 23 67 42 23 19 50 34 62 34 12 0 34 14 50 30
16 17 34 30 40 30 15 0 156 92 174 113 7 9 34 23 61 32 27 9 54 23 61 31 7 8
28 21 46 29 19 8 48 28 65 45 17 17 44 34 60 37 19 4 33 15 39 30 5 15 20 26
39 30 20 3 36 16 45 33 8 15 35 40 61 55 25 15 53 33 63 41 9 8 39 32 66 54
28 22 57 48 65 57 47 54 177 160 227 184 23 11 45 29 48 40 4 10 29 40 56 66
109 104 131 128 144 160 8 18 28 41 46 52 29 17 75 69 122 136 10 14 24 25 32
25 7 0 16 14 20 30 4 17 18 38 32 47 13 9 31 33 39 54 9 20 29 49 45 63 16 14
29 34 29 45 0 10 9 26 20 36 10 9 26 41 35 70 9 34 24 58 39 69 18 11 27 29
32 61 4 27 18 60 35 81 28 35 33 52 43 144 4 34 12 50 33 67 l28 23 3 371 c4
353 3 373 -15 398 -34 46 -63 116 -69 166 -12 89 -39 108 -84 60z"/>
<path d="M4466 10043 c-40 -3 -70 -12 -95 -28 -19 -14 -57 -28 -84 -31 -30 -4
-61 -17 -84 -35 -20 -16 -54 -32 -75 -36 -24 -3 -44 -14 -51 -25 -7 -11 -41
-40 -77 -64 -36 -23 -87 -64 -114 -89 -27 -25 -52 -45 -56 -45 -7 0 -48 -59
-97 -139 -12 -20 -31 -43 -43 -53 -11 -9 -20 -20 -20 -25 0 -26 -23 -82 -41
-102 -14 -15 -26 -49 -35 -97 -7 -41 -23 -94 -36 -117 -22 -39 -23 -53 -23
-217 0 -170 1 -177 27 -230 15 -30 30 -73 34 -95 4 -22 15 -46 25 -53 10 -7
26 -39 35 -70 9 -31 22 -64 29 -72 21 -25 45 -78 45 -99 0 -11 14 -29 30 -41
17 -12 30 -26 30 -31 0 -11 82 -135 107 -164 10 -10 26 -33 36 -50 10 -16 24
-34 31 -40 6 -5 22 -27 35 -48 25 -41 77 -108 115 -147 13 -14 40 -51 60 -83
35 -55 99 -133 151 -187 14 -14 25 -30 25 -35 0 -6 13 -23 30 -40 74 -74 110
-115 110 -124 0 -5 14 -25 31 -43 17 -18 38 -44 47 -58 9 -14 25 -31 34 -38
10 -7 25 -26 33 -43 13 -24 22 -29 51 -29 27 0 36 5 43 23 5 12 35 49 68 82
32 33 68 76 80 95 12 20 33 46 47 59 14 14 26 29 26 35 0 5 15 24 33 41 17 17
49 51 70 76 20 24 45 52 55 63 9 10 26 31 37 46 11 15 45 59 76 96 31 38 62
80 69 94 7 14 21 34 31 45 52 57 88 104 104 135 19 37 51 81 97 131 14 16 29
42 33 59 4 16 22 48 41 71 19 22 34 47 34 53 0 7 14 32 31 56 17 23 37 64 45
90 8 26 22 58 32 71 10 13 24 44 31 69 7 25 24 65 38 89 26 44 26 48 25 248
l0 202 -31 64 c-17 35 -31 72 -31 83 0 19 -8 34 -47 95 -13 19 -23 48 -23 65
0 21 -10 40 -34 63 -19 18 -37 45 -41 60 -4 14 -21 40 -38 57 -18 18 -36 37
-42 42 -14 15 -57 58 -74 74 -7 7 -28 27 -45 44 -17 17 -45 34 -61 38 -15 4
-43 23 -60 42 -17 19 -39 34 -49 34 -26 0 -82 26 -105 49 -12 12 -32 21 -45
21 -32 0 -86 20 -118 43 -25 18 -46 20 -245 22 -120 2 -244 1 -277 -2z m369
-514 c57 -10 197 -78 213 -103 4 -6 19 -19 34 -29 35 -22 98 -85 98 -97 0 -5
13 -23 30 -40 16 -16 34 -49 41 -72 6 -24 16 -52 22 -63 42 -77 42 -79 42
-220 0 -138 -1 -141 -32 -207 -18 -37 -33 -70 -33 -73 0 -14 -91 -132 -132
-172 -24 -23 -63 -51 -88 -63 -25 -12 -61 -30 -80 -40 -100 -54 -472 -53 -540
1 -14 11 -47 30 -75 43 -53 25 -137 107 -157 153 -7 15 -24 42 -39 59 -16 20
-28 49 -33 80 -3 27 -15 57 -27 70 -15 16 -23 43 -30 99 -9 87 0 155 31 214
11 22 20 51 20 63 1 35 25 96 48 121 11 12 60 61 107 109 91 91 188 151 270
168 60 12 244 11 310 -1z"/>
<path d="M12040 9456 c0 -13 -7 -29 -15 -36 -8 -7 -15 -20 -15 -30 0 -9 -3
-20 -7 -24 -5 -4 -8 -11 -9 -14 0 -4 -6 -20 -13 -37 -7 -16 -15 -43 -18 -58
-3 -16 -16 -35 -29 -44 -14 -9 -30 -36 -41 -69 -10 -33 -24 -56 -35 -59 -9 -4
-23 -18 -30 -33 -7 -15 -23 -31 -36 -37 -26 -12 -28 -27 -6 -60 13 -20 14 -28
4 -40 -16 -19 -49 -19 -56 0 -4 8 -12 15 -20 15 -19 0 -19 -72 1 -109 13 -26
13 -30 -1 -42 -13 -10 -19 -8 -40 14 -14 15 -29 27 -34 27 -14 0 -30 -35 -30
-63 0 -18 -14 -37 -51 -66 -29 -23 -56 -41 -62 -41 -5 0 -3 -8 6 -17 41 -47
10 -91 -42 -60 -38 22 -38 23 -51 -18 -6 -19 -16 -35 -21 -35 -5 0 -9 -6 -9
-13 0 -21 -31 -44 -67 -52 -37 -7 -40 -15 -17 -50 13 -19 13 -28 3 -46 l-12
-23 -22 28 c-29 36 -59 32 -63 -8 -2 -19 2 -32 12 -38 9 -5 14 -13 11 -19 -9
-14 -35 -11 -35 5 0 20 -48 8 -55 -14 -3 -9 -23 -25 -45 -35 -22 -10 -40 -22
-40 -26 0 -11 -49 -59 -60 -59 -6 0 -10 -9 -10 -19 0 -11 -5 -23 -10 -26 -6
-4 -8 -9 -6 -13 2 -4 -15 -6 -39 -6 -52 2 -68 -7 -63 -36 2 -17 11 -24 31 -26
15 -1 27 1 27 5 0 4 6 8 14 8 21 0 7 -27 -15 -28 -43 -3 -55 -2 -72 6 -27 11
-67 -3 -67 -24 0 -17 -39 -34 -105 -43 -28 -4 -32 -44 -6 -57 12 -7 18 -17 15
-26 -9 -21 -30 -18 -48 6 -11 16 -21 20 -41 15 -39 -10 -43 -35 -11 -61 16
-13 24 -25 20 -28 -9 -5 -84 -11 -94 -7 -31 10 -56 8 -74 -8 -26 -23 -71 -42
-97 -42 -12 0 -23 -10 -30 -27 -12 -32 -26 -43 -54 -43 -10 0 -28 -11 -40 -25
-12 -15 -39 -29 -70 -36 -27 -6 -55 -13 -62 -15 -7 -2 -19 -19 -27 -39 -15
-34 -49 -57 -72 -48 -7 2 -29 -13 -50 -34 -24 -24 -47 -38 -64 -38 -34 -1
-161 -56 -154 -67 3 -4 -2 -9 -10 -9 -24 -2 -29 -4 -51 -16 -11 -6 -40 -14
-64 -18 -26 -4 -53 -17 -65 -30 -12 -12 -41 -30 -66 -40 -25 -9 -52 -23 -60
-30 -8 -7 -45 -19 -82 -28 -49 -11 -73 -22 -90 -41 -14 -16 -40 -31 -66 -37
-23 -5 -51 -18 -62 -29 -13 -13 -33 -20 -56 -20 -38 0 -67 -12 -99 -40 -11
-10 -33 -20 -50 -24 -56 -13 -85 -30 -85 -51 0 -30 -12 -42 -40 -40 -128 10
-177 3 -191 -29 -8 -17 -20 -21 -61 -23 -40 -2 -60 -9 -89 -33 -21 -16 -48
-30 -61 -30 -24 0 -186 -44 -216 -59 -23 -11 -82 -32 -109 -38 -13 -3 -23 -9
-23 -13 0 -4 -21 -17 -46 -29 -33 -16 -70 -23 -136 -25 -75 -4 -92 -7 -103
-23 -8 -11 -42 -28 -77 -37 -35 -10 -83 -27 -108 -38 -24 -11 -54 -21 -65 -23
-117 -13 -168 -29 -194 -57 -24 -26 -34 -30 -111 -36 -56 -5 -84 -11 -83 -19
3 -14 -117 -43 -175 -43 -66 0 -97 -10 -116 -39 -17 -24 -26 -28 -75 -29 -109
-4 -166 -15 -202 -39 -29 -19 -58 -26 -130 -33 -52 -5 -95 -13 -97 -18 -11
-33 -36 -45 -157 -72 -72 -16 -140 -35 -153 -42 -22 -11 -21 -12 20 -40 24
-15 63 -36 88 -45 25 -9 49 -20 55 -25 5 -4 18 -8 30 -8 43 0 145 -42 168 -69
22 -26 28 -28 93 -25 51 1 87 -4 139 -21 39 -13 86 -27 105 -30 19 -4 50 -16
67 -27 22 -13 40 -17 55 -12 13 4 110 6 216 5 106 -2 198 1 205 6 27 21 110
45 135 40 35 -7 265 24 274 37 3 5 3 19 -2 31 -8 22 -8 22 129 21 137 -1 137
-1 164 27 26 25 34 27 108 27 96 0 153 13 234 51 33 16 80 32 105 35 25 3 62
14 83 25 21 10 50 19 66 19 16 0 51 15 77 33 36 23 63 33 99 35 28 2 66 7 85
12 19 5 59 11 88 15 28 4 55 13 60 20 4 7 33 20 65 29 33 10 67 27 79 41 14
16 40 28 77 36 31 6 65 19 76 28 11 9 36 18 55 20 40 3 67 16 93 42 11 12 32
19 56 19 64 0 101 18 101 48 0 40 14 56 36 44 17 -8 42 -9 103 -4 10 1 29 13
43 27 15 15 40 26 67 30 39 5 52 13 101 72 7 9 17 9 39 0 26 -10 36 -8 73 13
24 13 55 36 69 51 14 15 38 31 52 35 15 3 27 12 27 20 0 8 19 18 45 25 25 6
42 15 39 20 -3 5 4 10 15 10 12 1 26 3 31 4 6 1 16 3 23 4 6 1 20 19 30 41 25
55 43 70 80 70 55 0 94 20 104 54 7 27 14 32 49 36 25 3 55 17 78 35 56 45
141 131 144 147 6 24 17 28 49 19 29 -9 35 -5 87 44 30 29 53 55 51 57 -2 2 5
14 15 28 11 14 20 21 20 15 0 -5 16 -10 36 -10 35 0 38 2 51 47 10 36 23 54
51 73 20 14 45 25 55 25 17 0 18 5 12 36 -5 28 -3 34 7 28 23 -15 61 -16 69
-2 17 26 10 65 -13 71 -19 5 -20 8 -8 23 13 15 15 14 24 -5 7 -17 17 -21 40
-19 28 3 32 7 36 44 4 23 14 54 24 68 10 17 16 42 15 64 -2 20 2 46 9 57 6 11
12 14 12 8 0 -7 0 -16 1 -20 0 -5 11 -14 25 -21 22 -12 28 -11 44 3 10 9 20
28 23 43 3 15 24 47 46 71 23 24 41 49 41 55 0 6 13 27 30 46 16 19 32 47 35
62 4 14 13 32 21 39 9 7 24 29 34 49 10 20 26 42 34 49 9 8 16 23 16 36 0 12
13 40 28 61 33 45 57 116 66 194 4 30 20 82 35 115 16 33 31 79 34 103 2 23
12 50 20 60 20 22 36 86 46 185 5 47 14 84 24 95 29 31 46 189 32 290 -7 52
-25 73 -25 28z m-317 -863 c9 -9 -13 -34 -24 -27 -14 8 -11 34 4 34 8 0 17 -3
20 -7z m-204 -234 c-13 -24 -36 -24 -49 0 -7 15 -6 24 6 36 15 15 18 15 35 -1
14 -13 16 -21 8 -35z m131 -104 c14 -16 6 -35 -16 -35 -8 0 -14 10 -14 25 0
28 12 32 30 10z m-150 -17 c0 -16 -3 -19 -11 -11 -6 6 -8 16 -5 22 11 17 16
13 16 -11z m67 -95 c-3 -3 -11 -2 -17 2 -8 5 -7 11 2 22 12 15 13 14 16 -1 2
-10 1 -20 -1 -23z m-342 -43 c3 -5 1 -10 -4 -10 -6 0 -11 5 -11 10 0 6 2 10 4
10 3 0 8 -4 11 -10z m-128 -146 c-3 -3 -12 -4 -19 -1 -8 3 -5 6 6 6 11 1 17
-2 13 -5z m-73 -330 c13 -5 14 -9 5 -20 -13 -16 -28 -17 -49 -4 -13 9 -13 11
0 20 18 12 23 12 44 4z m-893 -135 c16 -8 18 -13 8 -25 -15 -18 -45 -18 -52 0
-3 7 0 19 6 25 14 14 14 14 38 0z m-1 -430 c0 -5 -9 -9 -20 -9 -19 0 -26 11
-14 23 8 8 34 -3 34 -14z m-1492 -199 c24 -7 22 -8 -15 -9 -34 -1 -41 2 -37
14 4 8 10 12 16 9 5 -3 22 -10 36 -14z m-109 -69 c9 -6 10 -10 2 -16 -16 -9
-44 2 -36 15 8 12 16 12 34 1z m1172 -154 c-5 -5 -19 -6 -31 -2 l-22 7 23 12
c25 13 47 0 30 -17z m-615 -142 c-5 -13 -10 -14 -28 -4 -21 11 -21 12 -3 25
22 16 41 4 31 -21z m-547 -184 c16 -10 6 -31 -14 -31 -17 0 -28 17 -20 30 8
12 16 12 34 1z m355 -6 c11 -8 14 -15 7 -15 -7 0 -10 -4 -7 -8 6 -10 -108 -7
-124 3 -8 5 -8 11 1 21 15 19 98 18 123 -1z m-1454 -357 c-26 -10 -41 -2 -34
17 5 11 11 12 31 2 25 -11 25 -11 3 -19z"/>
</g>
</svg>
